<mxfile host="65bd71144e">
    <diagram id="BAw64UEVEJHP1WI1OmzK" name="Page-1">
        <mxGraphModel dx="447" dy="250" grid="1" gridSize="10" guides="1" tooltips="1" connect="1" arrows="1" fold="1" page="1" pageScale="1" pageWidth="850" pageHeight="1100" math="0" shadow="0">
            <root>
                <mxCell id="0"/>
                <mxCell id="1" parent="0"/>
                <mxCell id="21" style="edgeStyle=none;html=1;entryX=0.5;entryY=0;entryDx=0;entryDy=0;dashed=1;endArrow=block;endFill=0;" parent="1" source="2" target="14" edge="1">
                    <mxGeometry relative="1" as="geometry"/>
                </mxCell>
                <mxCell id="2" value="Den" style="swimlane;fontStyle=1;align=center;verticalAlign=top;childLayout=stackLayout;horizontal=1;startSize=26;horizontalStack=0;resizeParent=1;resizeParentMax=0;resizeLast=0;collapsible=1;marginBottom=0;" parent="1" vertex="1">
                    <mxGeometry x="340" y="264" width="160" height="34" as="geometry"/>
                </mxCell>
                <mxCell id="4" value="" style="line;strokeWidth=1;fillColor=none;align=left;verticalAlign=middle;spacingTop=-1;spacingLeft=3;spacingRight=3;rotatable=0;labelPosition=right;points=[];portConstraint=eastwest;" parent="2" vertex="1">
                    <mxGeometry y="26" width="160" height="8" as="geometry"/>
                </mxCell>
                <mxCell id="22" style="edgeStyle=none;html=1;entryX=1;entryY=0;entryDx=0;entryDy=0;dashed=1;endArrow=block;endFill=0;" parent="1" source="6" target="14" edge="1">
                    <mxGeometry relative="1" as="geometry"/>
                </mxCell>
                <mxCell id="6" value="Serg" style="swimlane;fontStyle=1;align=center;verticalAlign=top;childLayout=stackLayout;horizontal=1;startSize=26;horizontalStack=0;resizeParent=1;resizeParentMax=0;resizeLast=0;collapsible=1;marginBottom=0;" parent="1" vertex="1">
                    <mxGeometry x="560" y="264" width="160" height="34" as="geometry"/>
                </mxCell>
                <mxCell id="8" value="" style="line;strokeWidth=1;fillColor=none;align=left;verticalAlign=middle;spacingTop=-1;spacingLeft=3;spacingRight=3;rotatable=0;labelPosition=right;points=[];portConstraint=eastwest;" parent="6" vertex="1">
                    <mxGeometry y="26" width="160" height="8" as="geometry"/>
                </mxCell>
                <mxCell id="20" style="edgeStyle=none;html=1;endArrow=block;endFill=0;dashed=1;" parent="1" source="10" target="14" edge="1">
                    <mxGeometry relative="1" as="geometry"/>
                </mxCell>
                <mxCell id="10" value="Max" style="swimlane;fontStyle=1;align=center;verticalAlign=top;childLayout=stackLayout;horizontal=1;startSize=26;horizontalStack=0;resizeParent=1;resizeParentMax=0;resizeLast=0;collapsible=1;marginBottom=0;" parent="1" vertex="1">
                    <mxGeometry x="120" y="264" width="160" height="34" as="geometry"/>
                </mxCell>
                <mxCell id="12" value="" style="line;strokeWidth=1;fillColor=none;align=left;verticalAlign=middle;spacingTop=-1;spacingLeft=3;spacingRight=3;rotatable=0;labelPosition=right;points=[];portConstraint=eastwest;" parent="10" vertex="1">
                    <mxGeometry y="26" width="160" height="8" as="geometry"/>
                </mxCell>
                <mxCell id="14" value="&lt;div style=&quot;background-color: rgb(40 , 44 , 52) ; line-height: 24px&quot;&gt;&lt;div style=&quot;line-height: 24px&quot;&gt;&lt;div style=&quot;line-height: 24px&quot;&gt;&lt;span style=&quot;font-size: 18px&quot;&gt;&lt;b&gt;&lt;i&gt;Interface&amp;nbsp;&lt;/i&gt;&lt;/b&gt;&lt;/span&gt;&lt;/div&gt;&lt;div style=&quot;line-height: 24px&quot;&gt;&lt;span style=&quot;font-size: 18px&quot;&gt;&lt;b&gt;&lt;i&gt;Isubscriber&lt;/i&gt;&lt;/b&gt;&lt;/span&gt;&lt;/div&gt;&lt;div style=&quot;line-height: 24px&quot;&gt;&lt;span style=&quot;font-size: 18px&quot;&gt;+inform()&lt;/span&gt;&lt;br&gt;&lt;/div&gt;&lt;/div&gt;&lt;/div&gt;" style="html=1;" parent="1" vertex="1">
                    <mxGeometry x="365" y="380" width="110" height="80" as="geometry"/>
                </mxCell>
                <mxCell id="24" style="edgeStyle=none;html=1;endArrow=classic;endFill=1;startArrow=diamondThin;startFill=0;" parent="1" source="15" target="14" edge="1">
                    <mxGeometry relative="1" as="geometry"/>
                </mxCell>
                <mxCell id="15" value="YoutubeNotify" style="swimlane;fontStyle=1;align=center;verticalAlign=top;childLayout=stackLayout;horizontal=1;startSize=26;horizontalStack=0;resizeParent=1;resizeParentMax=0;resizeLast=0;collapsible=1;marginBottom=0;" parent="1" vertex="1">
                    <mxGeometry x="280" y="500" width="280" height="150" as="geometry"/>
                </mxCell>
                <mxCell id="16" value="  +news: string;&#10;  +arr: Isubscriber[];" style="text;strokeColor=none;fillColor=none;align=left;verticalAlign=top;spacingLeft=4;spacingRight=4;overflow=hidden;rotatable=0;points=[[0,0.5],[1,0.5]];portConstraint=eastwest;" parent="15" vertex="1">
                    <mxGeometry y="26" width="280" height="44" as="geometry"/>
                </mxCell>
                <mxCell id="17" value="" style="line;strokeWidth=1;fillColor=none;align=left;verticalAlign=middle;spacingTop=-1;spacingLeft=3;spacingRight=3;rotatable=0;labelPosition=right;points=[];portConstraint=eastwest;" parent="15" vertex="1">
                    <mxGeometry y="70" width="280" height="8" as="geometry"/>
                </mxCell>
                <mxCell id="18" value="+notifyAll(): void &#10;+addSubscriber(subscriber: Isubscriber): number&#10;+removeSubsriber(index: number): void" style="text;strokeColor=none;fillColor=none;align=left;verticalAlign=top;spacingLeft=4;spacingRight=4;overflow=hidden;rotatable=0;points=[[0,0.5],[1,0.5]];portConstraint=eastwest;" parent="15" vertex="1">
                    <mxGeometry y="78" width="280" height="72" as="geometry"/>
                </mxCell>
            </root>
        </mxGraphModel>
    </diagram>
</mxfile>